# xmcd
#
# Track frame offsets:
#	150
#	6257
#	24390
#	40025
#	60437
#	77792
#	96747
#
# Disc length: 1856 seconds
#
# Revision: 0
# Processed by: cddbd v1.4PL0 Copyright (c) Steve Scherf et al.
# Submitted via: EasyCDDAExtractor 4.6.9.1
#
DISCID=4e073e07
DTITLE=Béton Armé - Rage Au Coeur
DYEAR=2002
DGENRE=Hip-Hop Français
TTITLE0=Intr'homicide
TTITLE1=Dans L'silence
TTITLE2=Case DéPart
TTITLE3=Combler L'vide
TTITLE4=Un Troupeau Dans Ta Ville
TTITLE5=Le CinéMa, Des Sucreries !!
TTITLE6=Rage Au Coeur
EXTD=
EXTT0=
EXTT1=
EXTT2=
EXTT3=
EXTT4=
EXTT5=
EXTT6=
PLAYORDER=
